HIERARCHY
ROOT Hips
{
    OFFSET 0.000000 0.000000 0.000000
    CHANNELS 6 Xposition Yposition Zposition Zrotation Xrotation Yrotation
    JOINT Spine
    {
        OFFSET -0.000000 14.517291 0.000000
        CHANNELS 3 Zrotation Xrotation Yrotation
        JOINT Spine1
        {
            OFFSET -0.000000 37.558300 0.000000
            CHANNELS 3 Zrotation Xrotation Yrotation
            JOINT Neck
            {
                OFFSET -0.000000 37.404057 3.400369
                CHANNELS 3 Zrotation Xrotation Yrotation
                JOINT Head
                {
                    OFFSET -0.000000 24.785618 -3.540803
                    CHANNELS 3 Zrotation Xrotation Yrotation
                    End Site
                    {
                        OFFSET -0.000000 35.408028 0.000000
                    }
                }
            }
            JOINT LeftShoulder
            {
                OFFSET 6.992933 33.973492 -0.192664
                CHANNELS 3 Zrotation Xrotation Yrotation
                JOINT LeftArm
                {
                    OFFSET 21.527611 0.000000 0.000000
                    CHANNELS 3 Zrotation Xrotation Yrotation
                    JOINT LeftForeArm
                    {
                        OFFSET 56.353916 0.000000 0.000000
                        CHANNELS 3 Zrotation Xrotation Yrotation
                        JOINT LeftHand
                        {
                            OFFSET 47.774071 0.000000 0.000000
                            CHANNELS 3 Zrotation Xrotation Yrotation
                            End Site
                            {
                                OFFSET 26.556021 0.000000 0.000000
                            }
                        }
                    }
                }
            }
            JOINT RightShoulder
            {
                OFFSET -7.065357 33.973492 -0.192664
                CHANNELS 3 Zrotation Xrotation Yrotation
                JOINT RightArm
                {
                    OFFSET -21.527611 0.000000 0.000000
                    CHANNELS 3 Zrotation Xrotation Yrotation
                    JOINT RightForeArm
                    {
                        OFFSET -56.353916 0.000000 0.000000
                        CHANNELS 3 Zrotation Xrotation Yrotation
                        JOINT RightHand
                        {
                            OFFSET -47.774071 0.000000 0.000000
                            CHANNELS 3 Zrotation Xrotation Yrotation
                            End Site
                            {
                                OFFSET -26.556021 0.000000 0.000000
                            }
                        }
                    }
                }
            }
        }
    }
    JOINT LeftUpLeg
    {
        OFFSET 17.704014 0.000000 0.000000
        CHANNELS 3 Zrotation Xrotation Yrotation
        JOINT LeftLeg
        {
            OFFSET -0.000000 -81.181816 0.000000
            CHANNELS 3 Zrotation Xrotation Yrotation
            JOINT LeftFoot
            {
                OFFSET -0.000000 -62.821102 0.000000
                CHANNELS 3 Zrotation Xrotation Yrotation
                JOINT LeftToeBase
                {
                    OFFSET -0.000000 -11.507608 26.556021
                    CHANNELS 3 Zrotation Xrotation Yrotation
                    End Site
                    {
                        OFFSET -0.000000 0.000000 7.081605
                    }
                }
            }
        }
    }
    JOINT RightUpLeg
    {
        OFFSET -17.704014 0.000000 0.000000
        CHANNELS 3 Zrotation Xrotation Yrotation
        JOINT RightLeg
        {
            OFFSET -0.000000 -81.181816 0.000000
            CHANNELS 3 Zrotation Xrotation Yrotation
            JOINT RightFoot
            {
                OFFSET -0.000000 -62.821102 0.000000
                CHANNELS 3 Zrotation Xrotation Yrotation
                JOINT RightToeBase
                {
                    OFFSET -0.000000 -11.507608 26.556021
                    CHANNELS 3 Zrotation Xrotation Yrotation
                    End Site
                    {
                        OFFSET -0.000000 0.000000 7.081605
                    }
                }
            }
        }
    }
}
MOTION
Frames:    13
Frame Time:    0.008333
-24.386024    165.505936    -19.419012    -9.080556    -20.995893    43.355019    5.178115    5.422948    -2.326644    2.746511    6.516600    -0.855080    24.356861    -6.527997    -3.008820    -3.474829    1.506763    -8.678323    11.634799    8.531711    -26.724897    -33.186386    15.341605    -57.041561    -1.060740    -33.656799    -101.332390    -12.378070    -33.137711    -17.532257    1.297078    -6.969644    -1.462021    24.224154    -21.344995    59.176880    -1.641582    5.805972    95.568321    -13.706837    4.569574    24.991064    24.653578    -2.794647    5.868698    -3.386118    34.431599    -18.666555    7.369488    -17.739956    31.632826    0.000000    0.000000    0.000000    -94.539261    -44.917007    -57.021606    8.641402    20.293310    -6.951168    16.629314    18.851772    -23.952188    0.000000    0.000000    0.000000    
-24.356636    165.514511    -19.417595    -9.115128    -20.979591    43.362076    5.105887    5.366331    -2.401493    2.755008    6.562429    -0.883406    24.462460    -6.347414    -2.978789    -3.518002    1.326252    -8.641502    11.639103    8.521491    -26.679090    -33.176792    15.318546    -56.999390    -1.001348    -33.726524    -101.304474    -12.400600    -33.145748    -17.509451    1.528286    -6.817463    -1.618892    23.820875    -21.468248    58.076702    -1.471781    6.102185    95.305069    -13.807859    4.634429    25.110157    24.649757    -2.820964    5.870442    -3.364084    34.413990    -18.667988    7.367310    -17.735388    31.626240    0.000000    0.000000    0.000000    -94.537537    -44.928909    -56.933514    8.619636    20.278687    -6.920015    16.648148    18.887627    -23.963333    0.000000    0.000000    0.000000    
-24.328123    165.530258    -19.411188    -9.151048    -20.981852    43.366268    5.058460    5.319075    -2.485924    2.735515    6.608704    -0.912944    24.535408    -6.151787    -2.954958    -3.477408    1.140138    -8.589832    11.669554    8.542520    -26.634634    -33.218353    15.218625    -56.948547    -0.956886    -33.716743    -101.269394    -12.415108    -33.087738    -17.512779    1.792123    -6.606451    -1.779666    23.304319    -21.430092    56.931507    -1.416393    6.046694    95.064903    -13.537682    4.555272    25.246218    24.660759    -2.833527    5.847856    -3.354103    34.393944    -18.684757    7.362347    -17.727419    31.658783    0.000000    0.000000    0.000000    -94.502220    -44.946671    -56.816467    8.588985    20.259563    -6.901871    16.805452    18.842169    -24.169491    0.000000    0.000000    0.000000    
-24.298012    165.549545    -19.409220    -9.197446    -20.996328    43.367237    5.010314    5.285542    -2.574576    2.763232    6.648831    -0.946314    24.670731    -6.024722    -2.899486    -3.554968    1.011312    -8.547089    11.649004    8.530067    -26.606426    -33.262444    15.155339    -56.858536    -0.953058    -33.741817    -101.292686    -12.312465    -33.127773    -17.459862    2.042057    -6.457207    -1.908560    22.806919    -21.458248    55.770382    -1.274845    6.215002    94.840034    -13.735915    4.519347    25.248631    24.682442    -2.837944    5.805306    -3.354199    34.355579    -18.651356    7.376919    -17.713238    31.666512    0.000000    0.000000    0.000000    -94.430901    -44.956203    -56.676693    8.567749    20.222155    -6.904998    16.791317    18.903214    -24.134361    0.000000    0.000000    0.000000    
-24.270014    165.579269    -19.409409    -9.252539    -21.011581    43.360954    5.000810    5.251227    -2.677067    2.720180    6.663923    -0.978862    24.662334    -5.684656    -2.886827    -3.434690    0.695498    -8.450700    11.653047    8.554219    -26.583309    -33.284695    15.078032    -56.756809    -0.953264    -33.768322    -101.300179    -12.435413    -33.132305    -17.528906    2.345534    -6.215116    -2.038234    22.435350    -21.637564    54.691551    -1.028180    6.601235    94.586189    -13.809346    4.588568    25.473982    24.711990    -2.842740    5.765924    -3.354573    34.312809    -18.635794    7.373678    -17.692549    31.691118    0.000000    0.000000    0.000000    -94.348953    -44.972088    -56.517212    8.546235    20.186306    -6.913334    16.808140    18.940496    -24.117804    0.000000    0.000000    0.000000    
-24.242064    165.607712    -19.410507    -9.314519    -21.026409    43.343452    5.016740    5.212608    -2.802835    2.632129    6.681982    -1.016418    24.750698    -5.401737    -2.842520    -3.380177    0.452376    -8.360197    11.676517    8.600693    -26.514259    -33.300289    15.004218    -56.681728    -0.956388    -33.795803    -101.302872    -12.519803    -33.148224    -17.569740    2.696595    -5.998762    -2.090476    21.940067    -21.708475    53.527885    -0.897891    6.847772    94.352753    -13.768563    4.682957    25.611744    24.746124    -2.843433    5.727851    -3.358566    34.267086    -18.622353    7.379351    -17.684183    31.727486    0.000000    0.000000    0.000000    -94.266258    -44.996075    -56.389523    8.511598    20.155254    -6.862278    16.859739    18.959852    -24.149673    0.000000    0.000000    0.000000    
-24.216362    165.639771    -19.420639    -9.378016    -21.029545    43.310322    4.993141    5.165621    -2.921180    2.596882    6.684877    -1.054964    24.903893    -5.051164    -2.792934    -3.442889    0.153015    -8.279644    11.666800    8.671437    -26.492331    -33.298744    14.917341    -56.571507    -0.917770    -33.850750    -101.281723    -12.570118    -33.155674    -17.585514    3.035002    -5.497850    -2.303075    21.583902    -21.876135    52.675671    -0.776828    7.004976    94.049156    -13.791918    4.673216    25.829130    24.767111    -2.841346    5.718308    -3.337872    34.203453    -18.602251    7.350452    -17.669092    31.724640    0.000000    0.000000    0.000000    -94.201561    -45.037743    -56.257198    8.489079    20.130116    -6.858196    16.773634    19.065022    -23.966074    0.000000    0.000000    0.000000    
-24.188683    165.673904    -19.433161    -9.449187    -21.024725    43.263878    4.958680    5.103797    -3.017440    2.586051    6.721720    -1.088626    25.034626    -4.773962    -2.735368    -3.513579    -0.095860    -8.201679    11.651513    8.689335    -26.471531    -33.285271    14.889320    -56.464802    -0.835570    -33.956928    -101.258339    -12.580181    -33.177250    -17.585493    3.329676    -5.270693    -2.381928    21.130777    -21.855244    51.528927    -0.850537    7.098516    93.781021    -13.840759    4.817448    25.931984    24.787828    -2.842354    5.725269    -3.324139    34.137871    -18.553362    7.315810    -17.660072    31.709593    0.000000    0.000000    0.000000    -94.150375    -45.085972    -56.177902    8.456790    20.102556    -6.812081    16.796757    19.100458    -23.977131    0.000000    0.000000    0.000000    
-24.161200    165.705566    -19.447617    -9.520742    -21.013523    43.214188    4.923853    5.027493    -3.098345    2.560226    6.807658    -1.117506    25.121578    -4.580692    -2.705869    -3.517933    -0.289829    -8.151418    11.682601    8.686695    -26.406744    -33.267845    14.866601    -56.453793    -0.753815    -34.069324    -101.211319    -12.532014    -33.213978    -17.575674    3.697155    -5.067280    -2.470217    20.552153    -21.705053    50.351429    -1.135662    6.851916    93.525299    -13.644248    4.923160    25.856909    24.809546    -2.849820    5.721744    -3.322481    34.078739    -18.513872    7.280688    -17.652096    31.700912    0.000000    0.000000    0.000000    -94.114281    -45.133114    -56.098976    8.446790    20.073126    -6.807112    16.813036    19.135735    -23.996946    0.000000    0.000000    0.000000    
-24.133484    165.735184    -19.468939    -9.599815    -20.988144    43.149223    4.923395    4.946547    -3.174550    2.464282    6.891567    -1.139952    25.162123    -4.423511    -2.679971    -3.406626    -0.442453    -8.085536    11.757477    8.675015    -26.298834    -33.264286    14.851534    -56.484039    -0.667044    -34.165127    -101.161026    -12.465356    -33.234055    -17.537991    4.039811    -4.922937    -2.578730    20.089594    -21.529127    49.206745    -1.365950    6.745312    93.279953    -13.712235    5.025043    25.961546    24.821768    -2.869268    5.745366    -3.310427    34.026150    -18.469944    7.261915    -17.635237    31.683271    0.000000    0.000000    0.000000    -94.105003    -45.191082    -56.043072    8.427838    20.056562    -6.807681    16.619663    19.190687    -23.857853    0.000000    0.000000    0.000000    
-24.100149    165.768036    -19.490526    -9.677938    -20.971703    43.085873    4.931197    4.880251    -3.246570    2.367131    6.952512    -1.160046    25.248043    -4.285882    -2.637738    -3.346229    -0.554124    -8.021884    11.818615    8.675876    -26.251562    -33.260406    14.822451    -56.459415    -0.637953    -34.250217    -101.156677    -12.521246    -33.282543    -17.544273    4.376041    -4.731320    -2.733089    19.644577    -21.274429    48.081547    -1.659706    6.477916    93.055603    -13.658053    5.065128    26.020845    24.839922    -2.886200    5.755315    -3.309505    33.982948    -18.451118    7.249909    -17.613787    31.704819    0.000000    0.000000    0.000000    -94.094284    -45.244431    -55.995411    8.428343    20.050800    -6.810200    16.629513    19.225895    -23.884436    0.000000    0.000000    0.000000    
-24.069778    165.799255    -19.519318    -9.772107    -20.937252    43.005547    4.931978    4.807761    -3.315087    2.287344    6.996243    -1.179890    25.306711    -4.142488    -2.590640    -3.258531    -0.678422    -7.942518    11.860625    8.699951    -26.175756    -33.274685    14.757911    -56.450729    -0.651335    -34.260082    -101.163223    -12.588407    -33.295357    -17.567009    4.711120    -4.572356    -2.870365    19.290199    -21.180468    47.004238    -1.750976    6.538075    92.844353    -13.727287    5.191088    26.076866    24.857273    -2.919187    5.786847    -3.309676    33.938644    -18.430813    7.236263    -17.593418    31.728998    0.000000    0.000000    0.000000    -94.114250    -45.307632    -55.966915    8.434361    20.044048    -6.830571    16.649817    19.261677    -23.927620    0.000000    0.000000    0.000000    
-24.042427    165.840332    -19.549475    -9.868369    -20.919703    42.923168    4.960438    4.743731    -3.383032    2.160274    7.060046    -1.196412    25.466850    -4.035455    -2.537287    -3.280718    -0.773554    -7.899688    11.954124    8.674809    -26.094074    -33.297703    14.751550    -56.451202    -0.627103    -34.321476    -101.147316    -12.673442    -33.318783    -17.596382    5.091739    -4.414281    -3.034429    18.929497    -20.945827    45.932053    -1.926010    6.352703    92.636131    -13.683508    5.185851    26.122450    24.894913    -2.935625    5.797414    -3.334955    33.878040    -18.378706    7.231364    -17.556795    31.735430    0.000000    0.000000    0.000000    -94.106995    -45.376057    -55.969345    8.423301    20.049488    -6.850656    16.655628    19.302031    -23.921310    0.000000    0.000000    0.000000    
